<svg width="417" height="577" viewBox="0 0 417 577" fill="none" xmlns="http://www.w3.org/2000/svg">
<path d="M0 576.721V522.345C12.6329 521.795 23.0689 520.148 31.3077 517.401C40.0959 514.655 46.687 508.339 51.081 498.452C56.0243 488.565 58.496 472.637 58.496 450.666V135.118C58.496 120.288 58.7706 106.007 59.3199 92.2754C60.4184 78.544 61.2423 68.108 61.7915 60.9677C53.0034 61.517 42.0183 62.0662 28.8361 62.6155C15.6539 62.6155 6.04184 62.8901 0 63.4393V0H411.944L416.887 159.834H362.51C362.51 129.625 357.292 106.831 346.857 91.4515C336.421 76.0723 323.513 65.911 308.134 60.9677C292.755 55.4751 277.65 53.0034 262.82 53.5527L233.16 54.3766C221.626 54.3766 211.739 56.0244 203.5 59.3199C195.261 62.0662 188.945 68.6573 184.551 79.0932C180.157 88.9799 177.96 104.634 177.96 126.055V269.411H262.82L259.525 198.557H322.964V398.762H268.587C268.587 375.693 265.017 358.94 257.877 348.504C250.736 338.068 240.85 331.752 228.217 329.555C216.133 326.809 202.676 325.71 187.846 326.259H177.96V441.604C177.96 456.434 177.685 470.714 177.136 484.446C176.587 498.177 175.763 508.613 174.664 515.754C180.706 515.204 188.67 514.93 198.557 514.93C208.444 514.38 218.056 514.106 227.393 514.106C237.28 513.557 244.145 513.282 247.99 513.282V576.721H0Z" fill="white"/>
</svg>
