<svg width="142" height="145" viewBox="0 0 142 145" fill="none" xmlns="http://www.w3.org/2000/svg">
<path d="M70.318 144.582C57.4024 144.582 45.5632 141.234 34.8002 134.537C24.0373 127.84 15.5464 118.99 9.32786 107.988C3.10927 96.7469 0 84.6685 0 71.7529C0 58.5982 3.10927 46.6394 9.32786 35.8765C15.5464 24.8744 24.0373 16.1444 34.8002 9.68666C45.5632 3.2289 57.4024 0 70.318 0C83.951 0 96.0294 3.2289 106.553 9.68666C117.316 16.1444 125.807 24.8744 132.025 35.8765C138.483 46.6394 141.712 58.5982 141.712 71.7529C141.712 84.6685 138.483 96.7469 132.025 107.988C125.807 118.99 117.316 127.84 106.553 134.537C96.0294 141.234 83.951 144.582 70.318 144.582Z" fill="#4F46E5"/>
</svg>
